<svg xmlns="http://www.w3.org/2000/svg" xmlns:xlink="http://www.w3.org/1999/xlink" width="1920" height="1080" viewBox="0 0 1920 1080"><rect width="1920" height="1080" fill="#f4eff7"/><rect x="100" y="240" width="420" height="600" rx="32" fill="#ede4fa"/><text x="138" y="306" fill="#58476e" font-family="Arial,Helvetica,sans-serif" font-size="24" >01</text><circle cx="310" cy="470" r="64" fill="none" stroke="#6550aa" stroke-width="2"/><circle cx="310" cy="470" r="30" fill="#6550aa"/><text x="138" y="696" fill="#292334" font-family="Arial,Helvetica,sans-serif" font-size="40" font-weight="600">Confidence</text><text x="138" y="750" fill="#584d62" font-family="Arial,Helvetica,sans-serif" font-size="24" >Feeling able to begin</text><rect x="550" y="240" width="420" height="600" rx="32" fill="#f5dce8"/><text x="588" y="306" fill="#58476e" font-family="Arial,Helvetica,sans-serif" font-size="24" >02</text><circle cx="760" cy="470" r="74" fill="none" stroke="#6550aa" stroke-width="2"/><circle cx="802" cy="470" r="32" fill="#c66da1"/><text x="588" y="696" fill="#292334" font-family="Arial,Helvetica,sans-serif" font-size="40" font-weight="600">Interest</text><text x="588" y="750" fill="#584d62" font-family="Arial,Helvetica,sans-serif" font-size="24" >Finding a personal connection</text><rect x="1000" y="240" width="420" height="600" rx="32" fill="#cee9e3"/><text x="1038" y="306" fill="#58476e" font-family="Arial,Helvetica,sans-serif" font-size="24" >03</text><circle cx="1210" cy="470" r="84" fill="none" stroke="#6550aa" stroke-width="2"/><circle cx="1160" cy="470" r="50" fill="none" stroke="#458b84" stroke-width="2"/><text x="1038" y="696" fill="#292334" font-family="Arial,Helvetica,sans-serif" font-size="40" font-weight="600">Role models</text><text x="1038" y="750" fill="#584d62" font-family="Arial,Helvetica,sans-serif" font-size="24" >Seeing a possible future</text><rect x="1450" y="240" width="420" height="600" rx="32" fill="#ead6a9"/><text x="1488" y="306" fill="#58476e" font-family="Arial,Helvetica,sans-serif" font-size="24" >04</text><circle cx="1660" cy="470" r="94" fill="none" stroke="#6550aa" stroke-width="2"/><path d="M1572 470h176" stroke="#6550aa" stroke-width="2"/><text x="1488" y="696" fill="#292334" font-family="Arial,Helvetica,sans-serif" font-size="40" font-weight="600">Stereotypes</text><text x="1488" y="750" fill="#584d62" font-family="Arial,Helvetica,sans-serif" font-size="24" >Questioning who belongs</text></svg>